<svg xmlns="http://www.w3.org/2000/svg" viewBox="0 0 868.65 476.11"><defs><style>.cls-1{fill:#1a3a67;}</style></defs><g id="Capa_2" data-name="Capa 2"><g id="Capa_1-2" data-name="Capa 1"><path class="cls-1" d="M310,378.81c2,9.08,4,18.15,6.53,27.11L310,377.82C309.88,378,309.92,378.24,310,378.81Z"/><path class="cls-1" d="M436.57,226.9c0-5.25,0-14.14-.2-26.44a124.4,124.4,0,0,0-2.85-26.17c-.84-3.83-1.89-7.67-3.1-11.41-17.16-52.71-67.26-88.13-124.69-88.13-54.42,0-103.67,33-122.55,82.1a4,4,0,0,0-.26,1.2L163,162.68l3-8.3A142,142,0,0,1,178,130c27.05-43.87,76.78-71.12,129.8-71.12,66.32,0,124.15,40.81,143.91,101.54,1.39,4.29,2.59,8.69,3.56,13.09a143.23,143.23,0,0,1,3.27,30.19c.22,17,.16,24.64.1,27.09a4.65,4.65,0,0,0-.1,1.06,4.4,4.4,0,0,0,4.42,4.66H463c2.8,0,4.26-1.95,4.35-5.63,0-1,0-2.52.05-4.75,0-3.74,0-10.68-.15-22.54a152.15,152.15,0,0,0-3.48-32c-1-4.68-2.3-9.36-3.78-13.91C439.08,93.38,377.91,50.15,307.8,50.15c-56,0-108.61,28.84-137.24,75.27a150.82,150.82,0,0,0-12.73,25.92l-5,13.71-18.63,4.33,4-13.19C161.49,83.43,229.86,34.55,308.35,34.55S455,83.33,478.39,155.92c1.65,5.13,3.07,10.4,4.22,15.66a173.39,173.39,0,0,1,3.86,36.1c.2,15,.12,21.56.06,23.35a5.06,5.06,0,0,0-.06.79,4.54,4.54,0,0,0,4.39,4.46h.07c3-.05,3.94-1.58,4.24-4.62h0c0-.09,0-.18,0-.26.11-1.3.12-2.86.13-4.68,0-3.29,0-9.28-.12-19.15a180.66,180.66,0,0,0-4.07-37.84c-1.2-5.54-2.69-11.08-4.43-16.47C462.19,77,390.51,25.81,308.35,25.81A188.7,188.7,0,0,0,196.59,61.9c-31.42,22.84-55.1,55.38-66.71,91.68l-5.21,17.06a4.28,4.28,0,0,0-.17,1l-19.23,4.47a200.25,200.25,0,0,1,6.29-25.26c26.91-85,106-142.1,196.68-142.1,90.57,0,169.57,57,196.58,141.79,1.91,6,3.55,12.16,4.88,18.31A204.92,204.92,0,0,1,514.17,211c.16,12.45.09,18.29.05,20a3.83,3.83,0,0,0-.05.76,4.4,4.4,0,0,0,4.38,4.53h.07c3,0,4-1.65,4.25-4.62h0v0h0a1.93,1.93,0,0,1,0-.24c.09-1.2.1-2.6.1-4.2,0-3.36,0-8.63-.09-16.31a212.53,212.53,0,0,0-4.67-43.9c-1.39-6.42-3.1-12.85-5.09-19.12A212.87,212.87,0,0,0,436.51,41.79,216,216,0,0,0,117,115.13a4.19,4.19,0,0,0-.78.11L34.86,134.16c-.8.17-19.66,4.55-29.36,20.28C1,161.79-.75,170.33.3,179.9a4.25,4.25,0,0,0,0,1.91L60.64,441.4c3.19,13.71,9.76,23.56,19.51,29.27a42.24,42.24,0,0,0,21.43,5.44,50.23,50.23,0,0,0,12.47-1.52l109.36-24.66c.69,2.87,1.39,5.73,2.09,8.6.41,1.71.41,1.42,1.82,1.11l.3-.07c24.44-5.49,48.8-11.29,73.16-17.12,7.35-1.76,14.68-3.64,22-5.48,1.27-.31,1.27-.33.93-1.63-.69-2.69-1.27-5.41-1.84-8.13-1.41-6.68-2.72-13.38-4.6-19.95l-.39.07h0c-1.09.22-2.19.42-3.27.66q-2.64.6-5.26,1.25v0l-.09,0c-1,.25-1,.28-.8,1.34.06.3.14.6.21.91q1.15,5,2.32,9.92l-.36.08c.47,2,.94,4,1.4,6s.54,1.62-1.32,2.07l-57.35,13.6-18,4.25-.38.08c-.86.19-.9.06-1.17-1-.41-1.59-.81-3.19-1.19-4.79-.2-.82-.39-1.64-.59-2.46-.79-3.33-1.57-6.67-2.37-10-.2-.83-.27-1-.81-.95l-.15,0c-1.86.38-3.71.83-5.58,1.2-.72.15-1.52.57-2.22.64a1.52,1.52,0,0,1-1.21-.11c-.73-.49-.61-1.88-.85-2.87-1.2-5-2.38-10-3.58-15-.24-1-.32-1.26-.91-1.2l-.46.1c-2.26.53-4.51,1.05-6.75,1.62-1.56.39-1.54.42-1.29,2,1,5.85,2.72,11.5,4,17.27.17.75.51.85,1.19.68,2.1-.51,4.21-1,6.32-1.45,2.32-.53,2.32-.53,2.87,1.71l2.07,8.55L112,466.09l-.26.06c-.15,0-14.87,4.2-27.19-3C77,458.68,71.78,450.7,69.16,439.42L16.27,211.94c9.54,8,21,9.66,28.9,9.66a48,48,0,0,0,9.74-.9l6.36-1.43,52.6,226.29a4.37,4.37,0,0,0,4.25,3.38,4.86,4.86,0,0,0,1-.11,4.37,4.37,0,0,0,3.26-5.25L69.79,217.34,254.1,175.79,281,291.38l-4,.93c-2.49.59-5,1.16-7.48,1.74q2.22,9.36,4.45,18.73,2.31,9.69,4.64,19.37c.21.84.28,1.07.74,1l.31-.07c2.31-.54,4.61-1.1,6.91-1.66,1.84-.44,1.61-.19,1.24-2-1.84-8.77-4.11-17.43-6.11-26.16-.08-.35-.15-.7-.24-1.05-.14-.51.07-.75.57-.86l1.22-.31a58.6,58.6,0,0,1,6.14-1.39l.11,0,.26,0c1.65-.24,1.66-.2,2.09,1.35.17.59.33,1.19.48,1.79.53,2,1.05,4.07,1.57,6.1H294a2.91,2.91,0,0,0,.42,0c.24-.06.47-.13.71-.18l6.45-1.53c.65-.14,1-.26,1.28-.28.86-.19.78,0,1.14,1.53q7.51,31.69,15,63.38c.19.8.39,1.6.57,2.41.27,1.19.27,1.2-1,1.5l-7.36,1.75c-1.06.25-1.08.27-.85,1.3,2.1,9.54,4.2,19.07,6.89,28.47,2.92-.56,5.79-1.35,8.67-2.05.7-.17.93-.43.74-1.16-.37-1.39-.66-2.81-1-4.21q-2.62-11.34-5.27-22.69c-.36-1.51-.17-1.31.95-1.72a62,62,0,0,1,6.54-1.79c2.06-.52,1.86-.2,1.37-2.29q-6.81-28.76-13.64-57.49c-.65-2.75-1.34-5.5-2-8.24-.3-1.18-.32-1.19-1.55-.9-2.26.52-4.51,1.06-6.76,1.57-1.79.41-1.61.59-2.1-1.34-.57-2.29-1.13-4.59-1.65-6.9-.15-.7-.4-.93-1.14-.73-1.64.43-3.3.8-4.95,1.16-1.06.22-2.13.38-3.19.6a.84.84,0,0,1-.6-.05L261.63,169.61c0-.05,0-.1-.05-.15a4.37,4.37,0,0,0-5.17-3.15L53,212.18c-1.36.33-33.47,7.44-42.84-26.74v0c-2.56-10.28-1.62-19.14,2.79-26.34,7.73-12.58,23.72-16.36,23.9-16.41l75.29-17.5a204.66,204.66,0,0,0-8.85,23c0,.07-.1.29-.19.6l-60.72,13a4.37,4.37,0,0,0,.91,8.64,4.86,4.86,0,0,0,.92-.09l56.11-12a154.57,154.57,0,0,0-4,19.07,4.76,4.76,0,0,0,0,.84L51.94,188.5a4.37,4.37,0,0,0,1,8.62,4.84,4.84,0,0,0,1-.11l183.31-42.62a4.37,4.37,0,1,0-2-8.51L226.18,148c17-25,46.26-40.31,77.54-40.31,40.74,0,76.27,25.06,88.41,62.35.85,2.63,1.59,5.33,2.18,8a88.41,88.41,0,0,1,2,18.54c.35,27.24,0,34.85,0,34.92a4.38,4.38,0,0,0,4.15,4.58h.22a4.37,4.37,0,0,0,4.36-4.15c0-.31.36-7.8,0-35.46a95.73,95.73,0,0,0-2.21-20.31,89.62,89.62,0,0,0-2.41-8.85c-13.3-40.9-52.17-68.39-96.71-68.39-36.07,0-69.71,18.71-87.79,48.81l-.22.37a9.54,9.54,0,0,0-.85,1.44,4.12,4.12,0,0,0-.39,1.15l-21.38,5c18.76-43.37,63.42-72.2,112.64-72.2,53.63,0,100.4,33,116.38,82.1,1.12,3.47,2.09,7,2.88,10.59a116.19,116.19,0,0,1,2.64,24.41c.28,21.47.22,28,.16,30a4.37,4.37,0,0,0-.14,1.58,4.45,4.45,0,0,0,4.41,4.2h.22C436.53,236.11,436.55,232.84,436.57,226.9Z"/><path class="cls-1" d="M371,178.29a61.15,61.15,0,0,0-1.62-5.93c-8.9-27.38-34.9-45.77-64.69-45.77a69.53,69.53,0,0,0-42.74,14.62,4.37,4.37,0,0,0,5.39,6.88,60.74,60.74,0,0,1,37.35-12.76c26,0,48.65,16,56.38,39.73a51.52,51.52,0,0,1,1.39,5.11A55.29,55.29,0,0,1,363.71,192c.24,17.95,0,37.66,0,37.86a4.37,4.37,0,0,0,4.32,4.42h.05a4.37,4.37,0,0,0,4.37-4.32c0-.2.23-20,0-38.07A64.67,64.67,0,0,0,371,178.29Z"/><path class="cls-1" d="M424,293c0-12.35-9.18-18.69-26.92-18.69H363.19v73.9h35.36c8.55,0,15.31-1.9,20.27-5.81a18.62,18.62,0,0,0,7.6-15.52c0-8.55-4.75-14.67-13.72-17.52C419.77,305.89,424,299.66,424,293Zm-42.54-4.22h16.26c5.17,0,8.34,2.42,8.34,6.33,0,4.75-3.17,7.92-8.34,7.92H381.45Zm17.42,45H381.45V317.29h17.42c5.59,0,9.08,2.95,9.08,7.7C408,330.38,404.46,333.76,398.87,333.76Z"/><path class="cls-1" d="M444.79,286.5c6,0,10.35-4.22,10.35-9.71S450.81,267,444.79,267s-10.24,4.22-10.24,9.82S438.88,286.5,444.79,286.5Z"/><rect class="cls-1" x="435.93" y="294.17" width="17.73" height="54.05"/><path class="cls-1" d="M465.91,271.16v77.06h16.68v-6A20.75,20.75,0,0,0,499,349.49a22.31,22.31,0,0,0,17.73-8c4.75-5.38,7.08-12.24,7.08-20.58,0-8.13-2.33-14.89-7-20.06A22.65,22.65,0,0,0,499,292.9a20.76,20.76,0,0,0-15.31,6V271.16Zm28.92,36c6.44,0,11,5.6,11,13.94,0,8.55-4.22,14.14-10.87,14.14-6.86,0-11.51-5.59-11.51-14S488,307.15,494.83,307.15Z"/><rect class="cls-1" x="533.26" y="271.16" width="17.73" height="77.06"/><path class="cls-1" d="M572.11,286.5c6,0,10.34-4.22,10.34-9.71S578.13,267,572.11,267s-10.24,4.22-10.24,9.82S566.2,286.5,572.11,286.5Z"/><rect class="cls-1" x="563.24" y="294.17" width="17.73" height="54.05"/><path class="cls-1" d="M640,341.67c5.38-5.17,8-12,8-20.48s-2.64-15.2-8-20.37-12.25-7.92-20.9-7.92-15.52,2.64-20.8,7.81-7.92,12-7.92,20.48,2.64,15.31,7.81,20.48,12.25,7.82,20.91,7.82S634.71,346.85,640,341.67Zm-31.67-20.48c0-8.55,4-13.83,10.77-13.83,7.07,0,11,5.07,11,13.83,0,8.45-4.11,13.73-11,13.73S608.32,329.64,608.32,321.19Z"/><path class="cls-1" d="M684.85,334.6c-4.54,0-6.12-1.48-6.12-6V307.89h13.94V294.17H678.73V274.32l-17.73,6v13.83h-8.45v13.72H661v23.75c0,11.83,6.86,17.85,20,17.85,6.23,0,12-1.69,16.26-5l-3.91-12.88C689.92,333.76,687.39,334.6,684.85,334.6Z"/><path class="cls-1" d="M728,292.9c-8.13,0-14.78,2.64-19.95,8s-7.81,12-7.81,20.27c0,8.66,2.53,15.52,7.6,20.69s11.93,7.61,20.48,7.61c10.66,0,18.16-2.86,23.75-9.19L742.81,330A18.77,18.77,0,0,1,730,335.66c-7.5,0-11.19-3.28-12.35-10.14h35.15c.11-1.79.32-4.12.32-6.65,0-7.92-2.33-14.14-7-18.9S735.53,292.9,728,292.9Zm-10,21.85c1.27-5.91,4.65-9,9.72-9s8,3.06,8.12,9Z"/><path class="cls-1" d="M788.63,335.13c-6.34,0-10.56-5.49-10.56-13.62,0-8.45,3.91-13.62,10.56-13.62,4.12,0,7.28,2.54,9.39,7.29l14.68-6.44c-3.49-10-13-15.84-24.49-15.84-8.34,0-15.1,2.64-20.27,8s-7.82,12.25-7.82,20.7c0,17.31,10.67,27.87,28.09,27.87,11.71,0,20.16-5.71,24.91-16.68L799,326.16C796.34,332.38,793.17,335.13,788.63,335.13Z"/><path class="cls-1" d="M844.9,292.9a37.63,37.63,0,0,0-26.4,11.51l8.77,10c5.17-4.54,11-7.18,15.72-7.18,5,0,7.61,2,8.35,6.12l-15.63,3.38c-11,2.43-17.21,8.34-17.21,17.1,0,9.19,6.87,15.63,17.42,15.63,7.18,0,12.78-2.64,16.47-7.82v6.55h16.26V314.75C868.65,301.24,860,292.9,844.9,292.9Zm6.54,33.26a9.92,9.92,0,0,1-10.24,9.92c-3.38,0-5-1.37-5-4.33,0-2.53,1.8-4.12,5.59-5l9.61-2.11Z"/><path class="cls-1" d="M382.93,368.11,356.33,442h18.36l3.91-11.83h28.5l4,11.83h19.53l-26.92-73.9Zm.63,47.29,9.19-27.76,9.39,27.76Z"/><path class="cls-1" d="M454.29,397.56V388H437.61V442h17.74V419.94c0-11.4,4.54-17.2,13.51-17.2a20.65,20.65,0,0,1,4.12.42l1.48-15.2a23.53,23.53,0,0,0-5.18-.53C462.63,387.43,457.57,390.91,454.29,397.56Z"/><path class="cls-1" d="M505.39,428.92c-6.34,0-10.56-5.49-10.56-13.62,0-8.45,3.91-13.62,10.56-13.62,4.11,0,7.28,2.53,9.39,7.28l14.68-6.43c-3.49-10-13-15.84-24.5-15.84-8.34,0-15.09,2.64-20.26,8s-7.82,12.25-7.82,20.69c0,17.32,10.67,27.87,28.08,27.87,11.72,0,20.17-5.7,24.92-16.68l-14.15-6.65C513.09,426.17,509.93,428.92,505.39,428.92Z"/><path class="cls-1" d="M563.55,386.69c-8.55,0-15.51,2.64-20.79,7.81s-7.92,12-7.92,20.48,2.64,15.31,7.81,20.48,12.25,7.81,20.9,7.81,15.63-2.64,20.91-7.81,8-12,8-20.48-2.64-15.2-8-20.37S572.21,386.69,563.55,386.69Zm0,42c-6.75,0-10.76-5.28-10.76-13.73s4-13.83,10.76-13.83c7.08,0,11,5.07,11,13.83C574.53,423.43,570.42,428.71,563.55,428.71Z"/><rect class="cls-1" x="601.87" y="387.96" width="17.73" height="54.05"/><polygon class="cls-1" points="603.57 380.04 618.03 380.04 629.53 363.89 613.17 363.89 603.57 380.04"/><path class="cls-1" d="M648.54,397.56V388H631.86V442h17.73V419.94c0-11.4,4.54-17.2,13.51-17.2a20.65,20.65,0,0,1,4.12.42L668.7,388a23.43,23.43,0,0,0-5.17-.53C656.88,387.43,651.81,390.91,648.54,397.56Z"/><rect class="cls-1" x="675.46" y="387.96" width="17.73" height="54.05"/><path class="cls-1" d="M684.32,362.62c-5.91,0-10.23,4.22-10.23,9.82s4.32,9.71,10.23,9.71,10.35-4.22,10.35-9.71S690.34,362.62,684.32,362.62Z"/><path class="cls-1" d="M733.31,408.65l-8.87-2.11q-3.8-.8-3.8-3.17c0-2.11,2-3.27,5.7-3.27,4.64,0,9.18,1.47,15.2,5.38l7.29-12.35a41,41,0,0,0-22.7-6.44c-6.44,0-11.72,1.69-15.84,5a15.18,15.18,0,0,0-6,12.14c0,8.76,5.38,14.57,15.51,16.79l7.61,1.69c3.8.84,5.27,1.9,5.27,3.9,0,2.43-2.32,3.91-6.43,3.91a29,29,0,0,1-17.42-6.34l-7.5,11.93c7.18,5.07,15.84,7.6,25.86,7.6,13.52,0,22.07-7.6,22.07-18.68C749.25,416.46,744,411.18,733.31,408.65Z"/><path class="cls-1" d="M163,371.13h0s0-.05,0,0c-.24-1.21-.46-2.36-.74-3.55-1.17-4.91-2.37-9.8-3.54-14.71-.3-1.24-.27-1.26.9-1.54l17.26-4.16a4.37,4.37,0,0,1,.66-.13c.75-.17.78-.06,1,.88.53,2.25,1,4.51,1.59,6.76.37,1.5.47,1.87,1.3,1.78l.78-.17c2.31-.53,4.63-1,6.93-1.55l.21,0,.16,0c.79-.19,1.07,0,1.24.82.57,2.56,1.23,5.1,1.8,7.66.14.68.42.88,1,.81,2.27-.58,4.57-1.07,6.85-1.64s2-.17,1.49-2.35l-22.68-95.5c-.71-3-1.43-6-2.14-9-.44-1.89-.56-1.6,1.32-2.07l9-2.17,7.3-1.74.66-.15a1.16,1.16,0,0,1,.47-.09c.48-.12.85-.25.67-1-.66-2.64-1.19-5.32-2.05-7.91-.25-.73-.55-.93-1.32-.74-5.75,1.4-11.51,2.74-17.27,4.11-1,.25-1,.27-.79,1.34.58,2.56,1.14,5.13,1.77,7.67.19.79,0,1.11-.78,1.29-2.35.57-4.69,1.19-7,1.79-2,.52-1.78.19-1.31,2.19q10,42.21,20,84.42a8.26,8.26,0,0,0,.22.89c.31.79,0,1.08-.78,1.26-2.6.61-5.19,1.29-7.78,1.94-1,.24-1,.23-1.21-.76-.62-2.55-1.22-5.11-1.85-7.65-.26-1-.29-1.08-1.34-.83l-27.17,6.46c-1.2.29-1.21.32-.91,1.55q3.17,13.44,6.37,26.88c.29,1.23.3,1.22,1.5,1,2.92-.58,5.8-1.31,8.68-2.05v0Z"/><path class="cls-1" d="M317.28,407.26h0l0,0Z"/><path class="cls-1" d="M317.31,407.25v0h0Z"/><path class="cls-1" d="M237.49,290.05c-.54-2.2-1.11-4.39-1.65-6.59-.5-2-.49-2-2.58-1.54l-15.93,3.71c-1.66.38-1.44.52-1.87-1.21-.1-.4-.2-.8-.29-1.2Q211,266,206.92,248.86a3.9,3.9,0,0,0-.5-1.59c0-.26-.21-.26-.4-.16-2.5.57-5,1.11-7.51,1.71-2.09.51-1.87.15-1.36,2.28q9.94,42.12,19.92,84.25c.13.55.3,1.08.45,1.63,0,.17,0,.34.16.37l.17,0h.05c.55-.07,1.1-.16,1.65-.26,1.95-.38,3.86-.93,5.79-1.4s1.78-.3,1.32-2.22q-4.28-18.07-8.57-36.15c-.31-1.31-.3-1.33.95-1.63q8.63-2.07,17.25-4.11c.11,0,.23,0,.35-.06h0a8.68,8.68,0,0,1,1-.14A2.3,2.3,0,0,0,237.49,290.05Z"/><path class="cls-1" d="M237.71,291.34h0a.09.09,0,0,0,0,.05l0,0v0Z"/><path class="cls-1" d="M269.47,294v0h0v0Z"/><path class="cls-1" d="M262.94,285.31q-12.15,2.82-24.28,5.68a1.62,1.62,0,0,0-.94.37,5.12,5.12,0,0,1,.47,1.59q4.22,17.87,8.42,35.73a7.32,7.32,0,0,1,.21.9c.08.64.39.82.89.76,2.37-.58,4.76-1.12,7.13-1.7,1.75-.43,1.64-.26,1.23-2Q253,313.4,249.82,300.2c-.35-1.46-.45-1.39,1-1.73l11.55-2.76,6.71-1.63v0l.36-.08-2.25-9.51C265.75,284.78,264.33,285,262.94,285.31Z"/><path class="cls-1" d="M163.39,371.07h0v0l.06,0Z"/><path class="cls-1" d="M203.74,412.45v0h0c-.06-.46-.22-1.13-.4-2.14-.94-5.31-2.46-10.49-3.67-15.74-.16-.68-.43-.87-.95-.81-2.82.71-5.66,1.37-8.49,2v0l-.35.08a3.6,3.6,0,0,1-.55-1.59c-1.33-5.49-2.64-11-4-16.49-.26-1.1-.3-1.4-.69-1.39l-.86.2c-2.36.51-4.71,1.07-7.06,1.59-.31.07-.53.12-.7.14-.85.17-.89.05-1.16-1-.59-2.45-1.18-4.9-1.79-7.34-.24-1-.3-1.14-1-1h0a41.38,41.38,0,0,0-6.59,1.6c-.67.24-1.36.4-2,.59.09,0,.22.08.22.12a33.69,33.69,0,0,0,1.76,8.72c.35,1.25.36,1.07,1.46.84,2.41-.5,4.83-1,7.23-1.51.7-.16,1.13-.17,1.32.69s.62,1.85.85,2.79c1.14,4.58,2.24,9.17,3.36,13.76l.3,1.19a.52.52,0,0,0,.68.43l.9-.19,8.44-1.67c.31,1.3.6,2.6.92,3.9q1.69,7,3.41,14.07c.31,1.26.32,1.28,1.62,1,1.81-.37,3.64-.7,5.42-1.19s2.54-.53,2.75-1a.71.71,0,0,1-.31-.47A.77.77,0,0,0,203.74,412.45Z"/></g></g></svg>