<svg xmlns="http://www.w3.org/2000/svg" viewBox="0 0 1109 736"><defs><style>.cls-1{fill:#1a3a67;}.cls-2{fill:#fff;}</style></defs><g id="Capa_2" data-name="Capa 2"><g id="Capa_1-2" data-name="Capa 1"><rect class="cls-1" width="1109" height="736"/><path class="cls-2" d="M451,516.9c2,9.07,4,18.15,6.52,27.1L451,515.9C450.79,516.07,450.83,516.32,451,516.9Z"/><path class="cls-2" d="M577.49,365c0-5.25,0-14.14-.21-26.43a123.72,123.72,0,0,0-2.85-26.18c-.84-3.83-1.88-7.67-3.1-11.41-17.15-52.71-67.26-88.13-124.69-88.13-54.41,0-103.66,33-122.55,82.1a4.28,4.28,0,0,0-.25,1.2l-19.94,4.63,3-8.3a141.26,141.26,0,0,1,12-24.37C346,224.22,395.7,197,448.72,197c66.31,0,124.14,40.8,143.9,101.53,1.4,4.29,2.59,8.69,3.57,13.1a142.88,142.88,0,0,1,3.26,30.18c.23,17,.17,24.64.11,27.09a4.15,4.15,0,0,0-.1,1.06,4.41,4.41,0,0,0,4.41,4.67h.07c2.8-.06,4.26-2,4.35-5.64,0-1,.05-2.52.06-4.75,0-3.74,0-10.68-.16-22.54a151.24,151.24,0,0,0-3.47-32c-1-4.67-2.31-9.36-3.79-13.91C580,231.46,518.83,188.23,448.72,188.23c-56,0-108.62,28.84-137.24,75.27a150.14,150.14,0,0,0-12.74,25.92l-5,13.71-18.62,4.33,4-13.19c23.27-72.76,91.64-121.64,170.13-121.64S596,221.41,619.31,294c1.65,5.13,3.06,10.4,4.21,15.66a173,173,0,0,1,3.87,36.1c.19,15,.11,21.56.05,23.35a4.09,4.09,0,0,0-.05.79,4.54,4.54,0,0,0,4.38,4.46h.07c3-.05,3.95-1.58,4.25-4.62h0c0-.09,0-.18,0-.26.11-1.3.12-2.86.13-4.68,0-3.29,0-9.28-.11-19.14a182.16,182.16,0,0,0-4.07-37.85c-1.21-5.53-2.7-11.08-4.44-16.47-24.52-76.22-96.2-127.44-178.36-127.44A188.72,188.72,0,0,0,337.5,200c-31.41,22.84-55.1,55.38-66.71,91.68l-5.21,17.06a4.28,4.28,0,0,0-.17,1l-19.23,4.47a199.35,199.35,0,0,1,6.29-25.25c26.91-85,106-142.11,196.68-142.11s169.58,57,196.58,141.8c1.91,6,3.56,12.16,4.88,18.3a204.21,204.21,0,0,1,4.47,42.18c.16,12.44.1,18.28.06,20a4.56,4.56,0,0,0-.06.75,4.41,4.41,0,0,0,4.39,4.53h.06c3.06-.05,4-1.65,4.26-4.63h0v0h0a1.93,1.93,0,0,0,0-.24c.09-1.2.1-2.6.11-4.2,0-3.35,0-8.63-.1-16.3a212.54,212.54,0,0,0-4.67-43.91c-1.38-6.42-3.09-12.85-5.09-19.11-13.36-42-40.58-79.65-76.63-106.1A215.94,215.94,0,0,0,258,253.22a4.38,4.38,0,0,0-.79.1l-81.39,18.92c-.8.18-19.65,4.56-29.35,20.28-4.54,7.35-6.26,15.89-5.21,25.46a4.39,4.39,0,0,0,0,1.91l60.35,259.59c3.19,13.71,9.75,23.56,19.51,29.28a42.34,42.34,0,0,0,21.42,5.44A49.84,49.84,0,0,0,255,612.67L364.32,588c.7,2.87,1.39,5.73,2.09,8.6.42,1.71.42,1.42,1.82,1.12l.31-.07c24.43-5.5,48.8-11.3,73.16-17.13,7.35-1.76,14.67-3.64,22-5.47,1.26-.32,1.26-.33.93-1.64-.69-2.69-1.27-5.41-1.85-8.13-1.4-6.68-2.72-13.38-4.6-19.95l-.38.07h0c-1.1.22-2.19.42-3.28.67-1.75.39-3.5.81-5.25,1.24v0l-.09,0c-1,.25-1,.28-.79,1.34.06.31.13.61.2.91q1.17,5,2.33,9.92l-.37.08,1.41,6c.44,1.92.53,1.63-1.33,2.07l-57.35,13.6-18,4.25-.38.09c-.85.18-.9,0-1.17-1-.41-1.59-.81-3.19-1.19-4.79-.19-.82-.39-1.63-.58-2.45l-2.37-10c-.2-.83-.27-1-.82-1l-.15,0c-1.86.38-3.71.83-5.57,1.2-.72.15-1.52.57-2.22.64a1.5,1.5,0,0,1-1.22-.11c-.72-.49-.6-1.88-.84-2.87-1.21-5-2.39-10-3.59-15-.24-1-.31-1.27-.9-1.21l-.47.11c-2.25.52-4.51,1-6.75,1.61-1.56.39-1.54.42-1.29,2,.95,5.85,2.73,11.51,4,17.27.17.76.51.85,1.19.69,2.1-.52,4.22-1,6.32-1.46,2.32-.53,2.33-.53,2.87,1.71.69,2.85,1.39,5.7,2.08,8.55L252.93,604.17l-.26.07c-.15,0-14.86,4.19-27.19-3-7.6-4.46-12.79-12.44-15.41-23.72L157.19,350c9.53,8,20.95,9.66,28.89,9.66a48.13,48.13,0,0,0,9.75-.9l6.35-1.43,52.61,226.29A4.36,4.36,0,0,0,259,587a4.77,4.77,0,0,0,1-.11,4.38,4.38,0,0,0,3.27-5.25L210.71,355.43,395,313.88l26.87,115.58-4,.93c-2.49.59-5,1.16-7.48,1.74q2.22,9.38,4.44,18.74,2.31,9.67,4.65,19.36c.2.84.27,1.07.74,1l.31-.07,6.9-1.65c1.84-.45,1.62-.2,1.24-2-1.84-8.76-4.1-17.43-6.1-26.16-.08-.35-.15-.7-.25-1.05-.14-.51.07-.74.57-.86l1.22-.31a58.78,58.78,0,0,1,6.15-1.39h.11l.25,0c1.66-.23,1.67-.2,2.1,1.35l.48,1.79c.52,2,1,4.08,1.56,6.1a.56.56,0,0,0,.13,0,2.87,2.87,0,0,0,.42,0l.71-.18c2.15-.5,4.3-1,6.46-1.53a11.1,11.1,0,0,1,1.28-.27c.85-.2.78,0,1.14,1.52q7.51,31.69,15,63.38c.19.8.39,1.6.57,2.41.26,1.19.26,1.2-1,1.5l-7.36,1.75c-1.05.25-1.07.27-.84,1.3,2.09,9.54,4.2,19.07,6.89,28.47,2.92-.56,5.78-1.34,8.67-2,.7-.17.93-.44.73-1.17-.37-1.39-.66-2.8-1-4.21q-2.64-11.34-5.28-22.68c-.35-1.52-.16-1.32,1-1.73a61.36,61.36,0,0,1,6.54-1.79c2.06-.52,1.86-.2,1.36-2.29q-6.81-28.75-13.64-57.49c-.65-2.75-1.33-5.49-2-8.24-.29-1.18-.31-1.18-1.55-.9-2.25.52-4.5,1.06-6.76,1.57-1.79.41-1.6.6-2.09-1.33-.58-2.3-1.14-4.6-1.65-6.9-.16-.71-.4-.94-1.14-.74-1.64.43-3.3.8-5,1.16-1.05.23-2.12.39-3.18.6a.87.87,0,0,1-.61-.05L402.55,307.69a.88.88,0,0,1-.05-.15,4.36,4.36,0,0,0-5.18-3.14L193.87,350.27c-1.36.32-33.47,7.43-42.84-26.74v0c-2.56-10.28-1.62-19.14,2.8-26.34,7.72-12.58,23.71-16.36,23.9-16.4L253,263.25a204.87,204.87,0,0,0-8.86,23c0,.06-.09.29-.19.59l-60.71,13a4.37,4.37,0,0,0,.9,8.64,4.78,4.78,0,0,0,.92-.09l56.12-12a152.59,152.59,0,0,0-4,19.06,4,4,0,0,0,0,.84l-44.29,10.3a4.37,4.37,0,0,0,1,8.62,4.17,4.17,0,0,0,1-.11l183.32-42.62a4.37,4.37,0,0,0-2-8.51l-9.07,2.11c17-25,46.26-40.31,77.53-40.31,40.75,0,76.28,25.06,88.41,62.35.85,2.63,1.59,5.33,2.19,8a88.22,88.22,0,0,1,2,18.55c.36,27.23,0,34.84,0,34.91a4.37,4.37,0,0,0,4.15,4.58h.21A4.36,4.36,0,0,0,546,370c0-.3.37-7.8,0-35.46a96.48,96.48,0,0,0-2.21-20.31c-.66-3-1.47-5.95-2.41-8.85C528,264.51,489.17,237,444.63,237c-36.07,0-69.71,18.7-87.78,48.81l-.23.36a11.58,11.58,0,0,0-.85,1.44,4.41,4.41,0,0,0-.39,1.16l-21.37,5c18.75-43.38,63.42-72.2,112.63-72.2,53.63,0,100.41,33,116.38,82.1,1.13,3.46,2.1,7,2.88,10.58a115.56,115.56,0,0,1,2.64,24.41c.28,21.47.23,28,.16,30a4.37,4.37,0,0,0-.14,1.58,4.45,4.45,0,0,0,4.42,4.2h.22C577.45,374.2,577.46,370.92,577.49,365Z"/><path class="cls-2" d="M511.88,316.37c-.44-2-1-4-1.61-5.93-8.91-27.37-34.91-45.77-64.69-45.77a69.57,69.57,0,0,0-42.74,14.62,4.37,4.37,0,1,0,5.39,6.88,60.74,60.74,0,0,1,37.35-12.76c26,0,48.65,16,56.38,39.73.54,1.68,1,3.4,1.39,5.11a56.66,56.66,0,0,1,1.28,11.82c.23,17.95,0,37.66,0,37.86a4.37,4.37,0,0,0,4.31,4.42H509a4.36,4.36,0,0,0,4.36-4.32c0-.2.24-20,0-38.07A64,64,0,0,0,511.88,316.37Z"/><path class="cls-2" d="M564.91,431.09c0-12.35-9.19-18.69-26.92-18.69H504.1v73.9h35.37c8.55,0,15.3-1.9,20.27-5.81A18.63,18.63,0,0,0,567.33,465c0-8.55-4.74-14.68-13.72-17.53C560.69,444,564.91,437.74,564.91,431.09Zm-42.55-4.22h16.26c5.17,0,8.34,2.42,8.34,6.33,0,4.75-3.17,7.92-8.34,7.92H522.36Zm17.42,45H522.36V455.37h17.42c5.6,0,9.08,2.95,9.08,7.71C548.86,468.46,545.38,471.84,539.78,471.84Z"/><path class="cls-2" d="M585.71,424.58c6,0,10.34-4.22,10.34-9.71s-4.33-9.82-10.34-9.82-10.24,4.23-10.24,9.82S579.8,424.58,585.71,424.58Z"/><rect class="cls-2" x="576.84" y="432.25" width="17.73" height="54.05"/><path class="cls-2" d="M606.82,409.24V486.3H623.5v-6a20.78,20.78,0,0,0,16.36,7.29,22.35,22.35,0,0,0,17.74-8c4.75-5.38,7.07-12.24,7.07-20.58,0-8.13-2.32-14.89-7-20.06A22.66,22.66,0,0,0,639.86,431a20.76,20.76,0,0,0-15.3,6V409.24Zm28.93,36c6.44,0,11,5.6,11,13.94,0,8.55-4.23,14.15-10.88,14.15-6.86,0-11.5-5.6-11.5-14S628.88,445.23,635.75,445.23Z"/><rect class="cls-2" x="674.17" y="409.24" width="17.73" height="77.06"/><path class="cls-2" d="M713,424.58c6,0,10.35-4.22,10.35-9.71S719,405.05,713,405.05s-10.24,4.23-10.24,9.82S707.11,424.58,713,424.58Z"/><rect class="cls-2" x="704.16" y="432.25" width="17.73" height="54.05"/><path class="cls-2" d="M780.9,479.75c5.39-5.17,8-12,8-20.47s-2.63-15.21-8-20.38S768.66,431,760,431s-15.52,2.64-20.8,7.82-7.91,12-7.91,20.48,2.64,15.3,7.81,20.47,12.24,7.82,20.9,7.82S775.62,484.93,780.9,479.75Zm-31.67-20.47c0-8.56,4-13.83,10.77-13.83,7.07,0,11,5.06,11,13.83,0,8.44-4.12,13.72-11,13.72S749.23,467.72,749.23,459.28Z"/><path class="cls-2" d="M825.77,472.68c-4.54,0-6.12-1.48-6.12-6V446h13.93V432.25H819.65V412.4l-17.74,6v13.83h-8.44V446h8.44v23.76c0,11.82,6.86,17.84,20.06,17.84,6.23,0,12-1.69,16.25-5l-3.9-12.87C830.84,471.84,828.3,472.68,825.77,472.68Z"/><path class="cls-2" d="M869,431c-8.13,0-14.78,2.64-20,8s-7.82,12-7.82,20.27c0,8.65,2.54,15.51,7.6,20.69s11.93,7.6,20.48,7.6c10.67,0,18.16-2.85,23.76-9.19L883.73,468a18.85,18.85,0,0,1-12.78,5.7c-7.49,0-11.19-3.27-12.35-10.14h35.15c.11-1.79.32-4.11.32-6.65,0-7.91-2.32-14.14-7-18.89S876.44,431,869,431Zm-10,21.86c1.27-5.92,4.64-9,9.71-9s8,3.06,8.13,9Z"/><path class="cls-2" d="M929.54,473.21c-6.33,0-10.55-5.49-10.55-13.62,0-8.44,3.9-13.62,10.55-13.62,4.12,0,7.29,2.54,9.4,7.29l14.67-6.44c-3.48-10-13-15.84-24.49-15.84-8.34,0-15.09,2.64-20.27,8S901,451.25,901,459.7c0,17.31,10.66,27.87,28.08,27.87,11.72,0,20.16-5.7,24.92-16.68l-14.15-6.65C937.25,470.47,934.08,473.21,929.54,473.21Z"/><path class="cls-2" d="M985.81,431a37.61,37.61,0,0,0-26.39,11.51l8.76,10c5.17-4.54,11-7.18,15.73-7.18,5,0,7.6,2,8.34,6.12l-15.62,3.38c-11,2.43-17.21,8.34-17.21,17.1,0,9.19,6.86,15.63,17.42,15.63,7.18,0,12.77-2.64,16.47-7.82v6.55h16.25V452.84C1009.56,439.32,1000.91,431,985.81,431Zm6.55,33.26a9.92,9.92,0,0,1-10.24,9.92c-3.38,0-5-1.37-5-4.33,0-2.53,1.8-4.12,5.6-5l9.61-2.11Z"/><path class="cls-2" d="M523.84,506.19l-26.6,73.9h18.37l3.9-11.82H548l4,11.82h19.53l-26.92-73.9Zm.64,47.3,9.18-27.77,9.4,27.77Z"/><path class="cls-2" d="M595.21,535.64V526H578.53v54.05h17.73V558c0-11.41,4.54-17.21,13.51-17.21a20.65,20.65,0,0,1,4.12.42l1.48-15.2a23.43,23.43,0,0,0-5.17-.53C603.55,525.51,598.48,529,595.21,535.64Z"/><path class="cls-2" d="M646.3,567c-6.33,0-10.55-5.49-10.55-13.62,0-8.45,3.9-13.62,10.55-13.62,4.12,0,7.29,2.54,9.4,7.29l14.67-6.44c-3.48-10-13-15.84-24.49-15.84-8.34,0-15.1,2.64-20.27,8s-7.81,12.25-7.81,20.7c0,17.31,10.66,27.87,28.08,27.87,11.72,0,20.16-5.71,24.91-16.68L656.65,558C654,564.25,650.84,567,646.3,567Z"/><path class="cls-2" d="M704.47,524.77c-8.55,0-15.52,2.64-20.8,7.81s-7.91,12-7.91,20.48,2.63,15.31,7.81,20.48,12.24,7.82,20.9,7.82,15.62-2.64,20.9-7.82,8-12,8-20.48-2.64-15.2-8-20.37S713.12,524.77,704.47,524.77Zm0,42c-6.76,0-10.77-5.28-10.77-13.73s4-13.83,10.77-13.83c7.07,0,11,5.07,11,13.83C715.45,561.51,711.33,566.79,704.47,566.79Z"/><rect class="cls-2" x="742.79" y="526.04" width="17.73" height="54.05"/><polygon class="cls-2" points="744.48 518.12 758.94 518.12 770.45 501.97 754.09 501.97 744.48 518.12"/><path class="cls-2" d="M789.45,535.64V526H772.77v54.05h17.74V558c0-11.41,4.53-17.21,13.51-17.21a20.56,20.56,0,0,1,4.11.42l1.48-15.2a23.37,23.37,0,0,0-5.17-.53C797.79,525.51,792.72,529,789.45,535.64Z"/><rect class="cls-2" x="816.37" y="526.04" width="17.73" height="54.05"/><path class="cls-2" d="M825.24,500.7c-5.91,0-10.24,4.23-10.24,9.82s4.33,9.71,10.24,9.71,10.34-4.22,10.34-9.71S831.26,500.7,825.24,500.7Z"/><path class="cls-2" d="M874.22,546.73l-8.87-2.11q-3.79-.79-3.8-3.17c0-2.11,2-3.27,5.7-3.27,4.65,0,9.19,1.48,15.21,5.38l7.28-12.35a41,41,0,0,0-22.7-6.44c-6.44,0-11.71,1.69-15.83,5a15.2,15.2,0,0,0-6,12.14c0,8.77,5.38,14.57,15.52,16.79l7.6,1.69c3.8.84,5.28,1.9,5.28,3.9,0,2.43-2.32,3.91-6.44,3.91a29,29,0,0,1-17.42-6.34l-7.49,11.93c7.17,5.07,15.83,7.61,25.86,7.61,13.51,0,22.06-7.61,22.06-18.69C890.16,554.54,884.88,549.26,874.22,546.73Z"/><path class="cls-2" d="M303.94,509.21h0s0,0,0,0c-.24-1.2-.45-2.36-.74-3.55-1.17-4.91-2.37-9.8-3.54-14.71-.29-1.23-.27-1.26.91-1.54l17.25-4.16a4.62,4.62,0,0,1,.66-.13c.75-.17.79-.06,1,.88.53,2.25,1.05,4.51,1.6,6.76.36,1.5.46,1.87,1.29,1.78l.79-.17c2.3-.53,4.62-1,6.93-1.55a1.65,1.65,0,0,1,.21,0l.15,0c.79-.19,1.08,0,1.25.82.56,2.56,1.23,5.1,1.79,7.66.15.68.43.88,1,.81,2.28-.57,4.57-1.07,6.85-1.64s2-.17,1.49-2.34q-11.32-47.76-22.67-95.51c-.71-3-1.44-6-2.14-9-.44-1.89-.57-1.6,1.32-2.06,3-.74,6-1.45,9-2.17l7.3-1.75.66-.15a1.09,1.09,0,0,1,.46-.09c.49-.11.86-.24.68-1-.67-2.64-1.2-5.32-2.06-7.91-.24-.73-.54-.92-1.32-.74-5.75,1.4-11.51,2.74-17.27,4.11-1,.25-1,.27-.78,1.35.57,2.56,1.13,5.12,1.76,7.67.2.78,0,1.1-.77,1.28-2.35.57-4.69,1.2-7,1.8-2,.51-1.79.19-1.31,2.18q10,42.21,20,84.42a7,7,0,0,0,.22.9c.3.78,0,1.07-.78,1.25-2.61.61-5.19,1.29-7.79,1.94-1,.24-1,.23-1.21-.76-.62-2.55-1.22-5.11-1.85-7.65-.26-1.05-.29-1.07-1.33-.83q-13.59,3.23-27.18,6.47c-1.19.28-1.2.31-.91,1.54q3.18,13.44,6.37,26.88c.29,1.23.31,1.23,1.51,1,2.91-.58,5.79-1.3,8.67-2v0C304.11,509.17,303.94,509.22,303.94,509.21Z"/><path class="cls-2" d="M458.19,545.34h0l-.05,0Z"/><path class="cls-2" d="M458.23,545.33v0h0Z"/><path class="cls-2" d="M378.41,428.13c-.55-2.2-1.12-4.39-1.66-6.58s-.49-2-2.58-1.55l-15.93,3.71c-1.66.39-1.43.52-1.87-1.21-.1-.4-.19-.8-.29-1.2Q352,404.13,347.84,387a3.81,3.81,0,0,0-.51-1.6c-.05-.26-.2-.26-.39-.16-2.51.57-5,1.11-7.52,1.72-2.08.5-1.86.14-1.36,2.27q10,42.13,19.93,84.25c.13.55.3,1.09.45,1.63,0,.17,0,.34.16.37l.17,0h0c.56-.06,1.11-.16,1.65-.26,2-.38,3.87-.93,5.8-1.4s1.77-.3,1.32-2.22L359,435.36c-.31-1.31-.3-1.33,1-1.63l17.24-4.11.35-.05h0c.34-.08.69-.09,1-.14A2.38,2.38,0,0,0,378.41,428.13Z"/><path class="cls-2" d="M378.63,429.42h0a.09.09,0,0,1,0,.05l0,0v0Z"/><path class="cls-2" d="M410.39,432.1v0h0v0Z"/><path class="cls-2" d="M403.86,423.4q-12.15,2.81-24.29,5.67a1.57,1.57,0,0,0-.93.37,5.27,5.27,0,0,1,.46,1.59l8.43,35.74a9,9,0,0,1,.21.9c.07.64.38.81.89.75,2.37-.58,4.75-1.11,7.12-1.7,1.76-.42,1.65-.26,1.23-2q-3.11-13.21-6.25-26.42c-.34-1.46-.44-1.38,1-1.73l11.55-2.76c2.24-.53,4.48-1.09,6.72-1.63v0l.36-.09c-.75-3.13-1.49-6.26-2.26-9.51C406.66,422.87,405.25,423.07,403.86,423.4Z"/><path class="cls-2" d="M304.31,509.15h0v0h0l0,0Z"/><path class="cls-2" d="M344.66,550.53v0h0c-.06-.46-.21-1.12-.39-2.13-.95-5.31-2.47-10.5-3.67-15.75-.16-.68-.43-.87-.95-.81-2.83.71-5.66,1.37-8.49,2l0,0-.35.08a3.6,3.6,0,0,1-.55-1.58q-2-8.25-4-16.49c-.27-1.11-.31-1.41-.69-1.4l-.86.2c-2.36.51-4.71,1.07-7.07,1.6-.3.06-.52.11-.7.13-.85.17-.89,0-1.15-1-.6-2.45-1.18-4.9-1.79-7.34-.25-1-.3-1.13-1-1h0a42.65,42.65,0,0,0-6.58,1.6c-.67.24-1.37.4-2.05.6.09,0,.23.07.23.11a33.67,33.67,0,0,0,1.75,8.72c.35,1.25.37,1.07,1.46.85,2.41-.51,4.83-1,7.23-1.52.7-.16,1.14-.16,1.33.69s.61,1.85.85,2.79q1.69,6.87,3.35,13.76c.1.4.2.79.31,1.19a.51.51,0,0,0,.67.43l.91-.19,8.44-1.67c.3,1.3.6,2.6.91,3.9q1.7,7,3.41,14.07c.31,1.26.33,1.28,1.63,1,1.81-.37,3.63-.7,5.41-1.19s2.54-.53,2.75-1a.64.64,0,0,1-.3-.47A.68.68,0,0,1,344.66,550.53Z"/></g></g></svg>